<svg width="43" height="33" viewBox="0 0 43 33" fill="none" xmlns="http://www.w3.org/2000/svg">
<path d="M0.254395 4.1314V15.1894C0.254395 16.4468 0.90769 17.6525 2.07777 18.5401L19.239 31.5582C21.6766 33.4073 25.6257 33.4073 28.0633 31.5582L41.0805 21.6836C43.5182 19.8345 43.5182 16.8388 41.0805 14.9897L23.9193 1.97158C22.7492 1.08398 21.1598 0.588405 19.5022 0.588405H4.93472C2.35079 0.581008 0.254395 2.17129 0.254395 4.1314ZM11.1752 6.49833C12.0027 6.49833 12.7963 6.7477 13.3815 7.19159C13.9666 7.63547 14.2954 8.23751 14.2954 8.86526C14.2954 9.493 13.9666 10.095 13.3815 10.5389C12.7963 10.9828 12.0027 11.2322 11.1752 11.2322C10.3476 11.2322 9.55398 10.9828 8.96883 10.5389C8.38367 10.095 8.05494 9.493 8.05494 8.86526C8.05494 8.23751 8.38367 7.63547 8.96883 7.19159C9.55398 6.7477 10.3476 6.49833 11.1752 6.49833Z" fill="#121214"/>
</svg>
