<svg width="44" height="38" viewBox="0 0 44 38" fill="none" xmlns="http://www.w3.org/2000/svg">
<path d="M18.8908 0.173462H15.9047C13.9264 0.173462 12.3214 1.72717 12.3214 3.64221V11.736C12.3214 14.2869 14.4639 16.361 17.0992 16.361H26.6547C29.29 16.361 31.4325 14.2869 31.4325 11.736V3.64221C31.4325 1.72717 29.8275 0.173462 27.8492 0.173462H24.8631V5.95471C24.8631 6.59065 24.3256 7.11096 23.6686 7.11096H20.0853C19.4283 7.11096 18.8908 6.59065 18.8908 5.95471V0.173462ZM5.15473 18.6735C2.51949 18.6735 0.376953 20.7475 0.376953 23.2985V32.5485C0.376953 35.0994 2.51949 37.1735 5.15473 37.1735H17.0992C19.7344 37.1735 21.877 35.0994 21.877 32.5485V23.2985C21.877 20.7475 19.7344 18.6735 17.0992 18.6735H14.1131V24.4547C14.1131 25.0906 13.5756 25.611 12.9186 25.611H9.33529C8.67834 25.611 8.14084 25.0906 8.14084 24.4547V18.6735H5.15473ZM26.6547 37.1735H38.5992C41.2344 37.1735 43.377 35.0994 43.377 32.5485V23.2985C43.377 20.7475 41.2344 18.6735 38.5992 18.6735H35.6131V24.4547C35.6131 25.0906 35.0756 25.611 34.4186 25.611H30.8353C30.1783 25.611 29.6408 25.0906 29.6408 24.4547V18.6735H26.6547C25.5349 18.6735 24.5047 19.042 23.691 19.6707C24.0568 20.4223 24.2658 21.2606 24.2658 22.1422V33.7047C24.2658 34.5864 24.0568 35.4246 23.691 36.1762C24.5047 36.8049 25.5349 37.1735 26.6547 37.1735Z" fill="#121214"/>
</svg>
