<svg width="44" height="39" viewBox="0 0 44 39" fill="none" xmlns="http://www.w3.org/2000/svg">
<path d="M15.8896 19.6808C18.2067 19.6808 20.4289 18.6833 22.0674 16.9078C23.7058 15.1322 24.6263 12.7241 24.6263 10.2131C24.6263 7.70208 23.7058 5.29393 22.0674 3.51839C20.4289 1.74285 18.2067 0.745361 15.8896 0.745361C13.5726 0.745361 11.3504 1.74285 9.71194 3.51839C8.0735 5.29393 7.15304 7.70208 7.15304 10.2131C7.15304 12.7241 8.0735 15.1322 9.71194 16.9078C11.3504 18.6833 13.5726 19.6808 15.8896 19.6808ZM12.7704 23.2312C6.04731 23.2312 0.600586 29.1337 0.600586 36.4194C0.600586 37.6325 1.50837 38.6162 2.62775 38.6162H29.1515C29.8341 38.6162 30.4347 38.2538 30.8033 37.6916L24.0324 30.3542C23.0154 29.2521 22.4421 27.7579 22.4421 26.2046V23.7637C21.3569 23.4161 20.2034 23.2312 19.0089 23.2312H12.7704ZM26.8104 17.3139C25.6023 17.3139 24.6263 18.3716 24.6263 19.6808V25.7978C24.6263 27.0552 25.0836 28.2609 25.9026 29.1485L33.2332 37.0851C34.5095 38.4683 36.5845 38.4683 37.8677 37.0851L42.8776 31.656C44.1539 30.2728 44.1539 28.0242 42.8776 26.6336L35.547 18.697C34.728 17.8094 33.6154 17.3139 32.4551 17.3139H26.8104ZM28.4485 23.2312C28.4485 22.7604 28.6211 22.3088 28.9283 21.9759C29.2355 21.643 29.6522 21.456 30.0866 21.456C30.5211 21.456 30.9377 21.643 31.245 21.9759C31.5522 22.3088 31.7248 22.7604 31.7248 23.2312C31.7248 23.702 31.5522 24.1535 31.245 24.4864C30.9377 24.8193 30.5211 25.0064 30.0866 25.0064C29.6522 25.0064 29.2355 24.8193 28.9283 24.4864C28.6211 24.1535 28.4485 23.702 28.4485 23.2312Z" fill="#121214"/>
</svg>
