<svg width="20" height="20" viewBox="0 0 20 20" fill="none" xmlns="http://www.w3.org/2000/svg">
<g clip-path="url(#clip0_86_557)">
<path d="M10.0001 1.25C7.19455 1.25 4.94803 2.6875 3.31261 4.39844C1.68761 6.09375 0.600803 8.125 0.0869141 9.51953C-0.0276693 9.82812 -0.0276693 10.1719 0.0869141 10.4805C0.600803 11.875 1.68761 13.9062 3.31261 15.6016C4.94803 17.3125 7.19455 18.75 10.0001 18.75C12.8057 18.75 15.0522 17.3125 16.6876 15.6016C18.3126 13.9023 19.3994 11.875 19.9168 10.4805C20.0314 10.1719 20.0314 9.82812 19.9168 9.51953C19.3994 8.125 18.3126 6.09375 16.6876 4.39844C15.0522 2.6875 12.8057 1.25 10.0001 1.25ZM5.00011 10C5.00011 8.50816 5.52689 7.07742 6.46457 6.02252C7.40226 4.96763 8.67403 4.375 10.0001 4.375C11.3262 4.375 12.598 4.96763 13.5356 6.02252C14.4733 7.07742 15.0001 8.50816 15.0001 10C15.0001 11.4918 14.4733 12.9226 13.5356 13.9775C12.598 15.0324 11.3262 15.625 10.0001 15.625C8.67403 15.625 7.40226 15.0324 6.46457 13.9775C5.52689 12.9226 5.00011 11.4918 5.00011 10ZM10.0001 7.5C10.0001 8.87891 9.00358 10 7.77789 10C7.53136 10 7.29525 9.95312 7.07303 9.87109C6.88205 9.80078 6.65983 9.93359 6.66678 10.1602C6.67719 10.4297 6.71191 10.6992 6.77789 10.9688C7.25358 12.9688 9.08344 14.1562 10.8612 13.6211C12.639 13.0859 13.6946 11.0273 13.2189 9.02734C12.8334 7.40625 11.5591 6.31641 10.1425 6.25C9.94108 6.24219 9.82303 6.48828 9.88553 6.70703C9.95844 6.95703 10.0001 7.22266 10.0001 7.5Z" fill="white"/>
</g>
<defs>
<clipPath id="clip0_86_557">
<rect width="20" height="20" fill="white"/>
</clipPath>
</defs>
</svg>
