<svg width="44" height="39" viewBox="0 0 44 39" fill="none" xmlns="http://www.w3.org/2000/svg">
<path d="M2.98458 0.623627H41.2072C42.7174 0.623627 43.9374 1.83245 43.9374 3.32869V6.03375C43.9374 7.52998 42.7174 8.73881 41.2072 8.73881H2.98458C1.47445 8.73881 0.254395 7.52998 0.254395 6.03375V3.32869C0.254395 1.83245 1.47445 0.623627 2.98458 0.623627ZM2.98458 11.4439H41.2072V33.0844C41.2072 36.0684 38.7586 38.4945 35.7469 38.4945H8.44496C5.43322 38.4945 2.98458 36.0684 2.98458 33.0844V11.4439ZM13.9053 18.2065C13.9053 18.9504 14.5196 19.5591 15.2704 19.5591H28.9214C29.6722 19.5591 30.2865 18.9504 30.2865 18.2065C30.2865 17.4626 29.6722 16.854 28.9214 16.854H15.2704C14.5196 16.854 13.9053 17.4626 13.9053 18.2065Z" fill="#121214"/>
</svg>
