<svg width="43" height="37" viewBox="0 0 43 37" fill="none" xmlns="http://www.w3.org/2000/svg">
<path d="M31.7377 6.10335L42.051 16.2453C42.6557 16.84 43 17.6576 43 18.5C43 19.3424 42.6557 20.16 42.051 20.7547L31.7377 30.8967C31.2002 31.4252 30.4779 31.7143 29.7221 31.7143C28.1516 31.7143 26.875 30.4589 26.875 28.9145V23.7857H16.125C14.6385 23.7857 13.4375 22.6047 13.4375 21.1429V15.8571C13.4375 14.3953 14.6385 13.2143 16.125 13.2143H26.875V8.08549C26.875 6.54107 28.1516 5.28571 29.7221 5.28571C30.4779 5.28571 31.2002 5.58304 31.7377 6.10335ZM13.4375 5.28571H8.0625C6.57598 5.28571 5.375 6.46674 5.375 7.92857V29.0714C5.375 30.5333 6.57598 31.7143 8.0625 31.7143H13.4375C14.924 31.7143 16.125 32.8953 16.125 34.3571C16.125 35.819 14.924 37 13.4375 37H8.0625C3.61133 37 0 33.4487 0 29.0714V7.92857C0 3.55134 3.61133 0 8.0625 0H13.4375C14.924 0 16.125 1.18103 16.125 2.64286C16.125 4.10469 14.924 5.28571 13.4375 5.28571Z" fill="black"/>
</svg>
