<svg width="43" height="32" viewBox="0 0 43 32" fill="none" xmlns="http://www.w3.org/2000/svg">
<g clip-path="url(#clip0_90_213)">
<path d="M2.6876 6.00024H29.5626V2.00024C29.5626 1.19399 30.2177 0.462744 31.2255 0.150244C32.2333 -0.162256 33.3839 0.0127445 34.1565 0.581495L42.219 6.58149C42.723 6.95649 43.0085 7.46274 43.0085 7.99399C43.0085 8.52524 42.723 9.03149 42.219 9.40649L34.1565 15.4065C33.3839 15.9815 32.2333 16.1502 31.2255 15.8377C30.2177 15.5252 29.5626 14.8002 29.5626 13.9877V10.0002H2.6876C1.20107 10.0002 9.76564e-05 9.10649 9.76564e-05 8.00024C9.76564e-05 6.89399 1.20107 6.00024 2.6876 6.00024ZM40.3126 22.0002C41.7991 22.0002 43.0001 22.894 43.0001 24.0002C43.0001 25.1065 41.7991 26.0002 40.3126 26.0002H13.4376V30.0002C13.4376 30.8065 12.7825 31.5377 11.7747 31.8502C10.7669 32.1627 9.61631 31.9877 8.84365 31.419L0.781152 25.419C0.277246 25.044 -0.00830078 24.5377 -0.00830078 24.0065C-0.00830078 23.4752 0.277246 22.969 0.781152 22.594L8.84365 16.594C9.61631 16.019 10.7669 15.8502 11.7747 16.1627C12.7825 16.4752 13.4376 17.2002 13.4376 18.0127V22.0127H40.3126V22.0002Z" fill="black"/>
</g>
<defs>
<clipPath id="clip0_90_213">
<rect width="43" height="32" fill="white"/>
</clipPath>
</defs>
</svg>
