<svg width="43" height="31" viewBox="0 0 43 31" fill="none" xmlns="http://www.w3.org/2000/svg">
<g clip-path="url(#clip0_90_216)">
<mask id="mask0_90_216" style="mask-type:luminance" maskUnits="userSpaceOnUse" x="0" y="0" width="43" height="31">
<path d="M43 0H0V31H43V0Z" fill="white"/>
</mask>
<g mask="url(#mask0_90_216)">
<path d="M2.68711 5.81246H29.5621V1.93746C29.5621 1.1564 30.2172 0.447999 31.2249 0.145265C32.2328 -0.157469 33.3833 0.0120623 34.156 0.563039L42.2185 6.37554C42.7225 6.73881 43.008 7.22925 43.008 7.7439C43.008 8.25854 42.7225 8.74898 42.2185 9.11225L34.156 14.9248C33.3833 15.4818 32.2328 15.6453 31.2249 15.3425C30.2172 15.0398 29.5621 14.3375 29.5621 13.5504V9.68746H2.68711C1.20059 9.68746 -0.000390625 8.82163 -0.000390625 7.74996C-0.000390625 6.67827 1.20059 5.81246 2.68711 5.81246ZM40.3121 21.3124C41.7986 21.3124 42.9996 22.1783 42.9996 23.2499C42.9996 24.3216 41.7986 25.1874 40.3121 25.1874H13.4371V29.0624C13.4371 29.8435 12.782 30.5518 11.7742 30.8547C10.7664 31.1574 9.61583 30.9879 8.84316 30.4368L0.780664 24.6243C0.276757 24.2612 -0.00878906 23.7706 -0.00878906 23.256C-0.00878906 22.7414 0.276757 22.251 0.780664 21.8876L8.84316 16.0751C9.61583 15.5181 10.7664 15.3546 11.7742 15.6574C12.782 15.9601 13.4371 16.6624 13.4371 17.4495V21.3245H40.3121V21.3124Z" fill="black"/>
</g>
</g>
<defs>
<clipPath id="clip0_90_216">
<rect width="43" height="31" fill="white"/>
</clipPath>
</defs>
</svg>
