<svg width="20" height="20" viewBox="0 0 20 20" fill="none" xmlns="http://www.w3.org/2000/svg">
<path d="M4.95703 5.58204C7.38672 3.15235 11.3125 3.14063 13.7578 5.54297L12.1484 7.14844C11.8789 7.41797 11.8008 7.82032 11.9453 8.17188C12.0898 8.52344 12.4336 8.75 12.8125 8.75H17.4805H17.8125C18.332 8.75 18.75 8.33204 18.75 7.8125V2.81251C18.75 2.4336 18.5234 2.08985 18.1719 1.94532C17.8203 1.80079 17.418 1.87891 17.1484 2.14844L15.5234 3.77344C12.1016 0.394536 6.58984 0.406255 3.1875 3.81251C2.23438 4.76563 1.54688 5.88672 1.125 7.08594C0.894531 7.73829 1.23828 8.44922 1.88672 8.67969C2.53516 8.91016 3.25 8.56641 3.48047 7.91797C3.78125 7.06641 4.26953 6.26563 4.95703 5.58204ZM0 12.1875V12.4844V12.5117V17.1875C0 17.5664 0.226562 17.9102 0.578125 18.0547C0.929688 18.1992 1.33203 18.1211 1.60156 17.8516L3.22656 16.2266C6.64844 19.6055 12.1602 19.5938 15.5625 16.1875C16.5156 15.2344 17.207 14.1133 17.6289 12.918C17.8594 12.2656 17.5156 11.5547 16.8672 11.3242C16.2188 11.0938 15.5039 11.4375 15.2734 12.0859C14.9727 12.9375 14.4844 13.7383 13.7969 14.4219C11.3672 16.8516 7.44141 16.8633 4.99609 14.4609L6.60156 12.8516C6.87109 12.582 6.94922 12.1797 6.80469 11.8281C6.66016 11.4766 6.31641 11.25 5.9375 11.25H1.26562H1.23828H0.9375C0.417969 11.25 0 11.668 0 12.1875Z" fill="white"/>
</svg>
