<svg width="20" height="20" viewBox="0 0 20 20" fill="none" xmlns="http://www.w3.org/2000/svg">
<g clip-path="url(#clip0_111_406)">
<path d="M3 5C3 3.67392 3.42143 2.40215 4.17157 1.46447C4.92172 0.526784 5.93913 0 7 0C8.06087 0 9.07828 0.526784 9.82843 1.46447C10.5786 2.40215 11 3.67392 11 5C11 6.32608 10.5786 7.59785 9.82843 8.53553C9.07828 9.47322 8.06087 10 7 10C5.93913 10 4.92172 9.47322 4.17157 8.53553C3.42143 7.59785 3 6.32608 3 5ZM0 18.8398C0 14.9922 2.49375 11.875 5.57188 11.875H8.42813C11.5063 11.875 14 14.9922 14 18.8398C14 19.4805 13.5844 20 13.0719 20H0.928125C0.415625 20 0 19.4805 0 18.8398ZM15.75 12.1875V9.6875H13.75C13.3344 9.6875 13 9.26953 13 8.75C13 8.23047 13.3344 7.8125 13.75 7.8125H15.75V5.3125C15.75 4.79297 16.0844 4.375 16.5 4.375C16.9156 4.375 17.25 4.79297 17.25 5.3125V7.8125H19.25C19.6656 7.8125 20 8.23047 20 8.75C20 9.26953 19.6656 9.6875 19.25 9.6875H17.25V12.1875C17.25 12.707 16.9156 13.125 16.5 13.125C16.0844 13.125 15.75 12.707 15.75 12.1875Z" fill="white"/>
</g>
<defs>
<clipPath id="clip0_111_406">
<rect width="20" height="20" fill="white"/>
</clipPath>
</defs>
</svg>
