<svg width="81" height="92" viewBox="0 0 81 92" fill="none" xmlns="http://www.w3.org/2000/svg">
<g clip-path="url(#clip0_1_5)">
<path d="M40.5 46C46.6379 46 52.5243 43.5768 56.8645 39.2635C61.2046 34.9501 63.6429 29.1 63.6429 23C63.6429 16.9 61.2046 11.0499 56.8645 6.73654C52.5243 2.42321 46.6379 0 40.5 0C34.3621 0 28.4757 2.42321 24.1355 6.73654C19.7954 11.0499 17.3571 16.9 17.3571 23C17.3571 29.1 19.7954 34.9501 24.1355 39.2635C28.4757 43.5768 34.3621 46 40.5 46ZM32.2373 54.625C14.4281 54.625 0 68.9641 0 86.6633C0 89.6102 2.40469 92 5.36987 92H75.6301C78.5953 92 81 89.6102 81 86.6633C81 68.9641 66.5719 54.625 48.7627 54.625H32.2373Z" fill="white"/>
</g>
<defs>
<clipPath id="clip0_1_5">
<rect width="81" height="92" fill="white"/>
</clipPath>
</defs>
</svg>
