<svg width="20" height="20" viewBox="0 0 20 20" fill="none" xmlns="http://www.w3.org/2000/svg">
<g clip-path="url(#clip0_88_210)">
<path d="M0.419503 9.11719C-0.138532 9.60547 -0.138532 10.3984 0.419503 10.8867L7.56236 17.1367C8.1204 17.625 9.02665 17.625 9.58468 17.1367C10.1427 16.6484 10.1427 15.8555 9.58468 15.3672L4.87486 11.25H18.5713C19.3615 11.25 19.9999 10.6914 19.9999 10C19.9999 9.30859 19.3615 8.75 18.5713 8.75H4.87932L9.58022 4.63281C10.1383 4.14453 10.1383 3.35156 9.58022 2.86328C9.02218 2.375 8.11593 2.375 7.5579 2.86328L0.415039 9.11328L0.419503 9.11719Z" fill="#FFFDFD"/>
</g>
<defs>
<clipPath id="clip0_88_210">
<rect width="20" height="20" fill="white"/>
</clipPath>
</defs>
</svg>
